# xmcd
#
# Track frame offsets:
# 150
# 16413
# 35060
# 51242
# 92470
# 101877
# 124665
# 143220
# 160846
# 177553
#
# Disc length: 2666 seconds
#
#
# Revision: 0
# Processed by: cddbd v1.5.1PL0 Copyright (c) Steve Scherf et al.
# Submitted via: FreeRIP 2.80 
#
DISCID=870a680a
DTITLE=The Bathers - Live At The Mitchell Theatre 1994 Dic 2
DYEAR=1994
DGENRE=Blues
TTITLE0=The Ornella Mutiny
TTITLE1=Through The Old Holmwood
TTITLE2=Gracefruit
TTITLE3=Time Regained
TTITLE4=Easter Sorbonne
TTITLE5=Simple Twist Of Fate
TTITLE6=Last Ship On The River
TTITLE7=Send Me Your Halo
TTITLE8=State Of Art
TTITLE9=Angel Of Ruskin
EXTD=
EXTT0=
EXTT1=
EXTT2=
EXTT3=
EXTT4=
EXTT5=
EXTT6=
EXTT7=
EXTT8=
EXTT9=
PLAYORDER=
